<?xml version="1.0" encoding="UTF-8" standalone="no"?>
<svg
   xmlns:dc="http://purl.org/dc/elements/1.1/"
   xmlns:cc="http://creativecommons.org/ns#"
   xmlns:rdf="http://www.w3.org/1999/02/22-rdf-syntax-ns#"
   xmlns:svg="http://www.w3.org/2000/svg"
   xmlns="http://www.w3.org/2000/svg"
   xmlns:sodipodi="http://sodipodi.sourceforge.net/DTD/sodipodi-0.dtd"
   xmlns:inkscape="http://www.inkscape.org/namespaces/inkscape"
   sodipodi:docname="bmp_cloud.svg"
   inkscape:version="1.0 (4035a4fb49, 2020-05-01)"
   version="1.1"
   id="svg4160"
   viewBox="0 0 73.125003 97.500009"
   height="104"
   width="78">
  <defs
     id="defs4162" />
  <sodipodi:namedview
     inkscape:document-rotation="0"
     inkscape:window-maximized="1"
     inkscape:window-y="-9"
     inkscape:window-x="-9"
     inkscape:window-height="1001"
     inkscape:window-width="1920"
     showguides="true"
     units="px"
     showgrid="true"
     inkscape:current-layer="layer1"
     inkscape:document-units="px"
     inkscape:cy="76.672704"
     inkscape:cx="-28.528875"
     inkscape:zoom="3.8818635"
     inkscape:pageshadow="2"
     inkscape:pageopacity="0.0"
     borderopacity="1.0"
     bordercolor="#666666"
     pagecolor="#ffffff"
     id="base">
    <inkscape:grid
       spacingy="1"
       spacingx="1"
       originy="0.77255125"
       originx="4.8938754"
       id="grid4712"
       type="xygrid" />
  </sodipodi:namedview>
  <metadata
     id="metadata4165">
    <rdf:RDF>
      <cc:Work
         rdf:about="">
        <dc:format>image/svg+xml</dc:format>
        <dc:type
           rdf:resource="http://purl.org/dc/dcmitype/StillImage" />
        <dc:title />
      </cc:Work>
    </rdf:RDF>
  </metadata>
  <g
     transform="translate(4.8938755,0.76239738)"
     style="display:inline"
     inkscape:label="Fondo"
     id="layer4"
     inkscape:groupmode="layer" />
  <g
     transform="translate(4.8938755,0.76239738)"
     inkscape:label="Simbolo"
     id="layer1"
     inkscape:groupmode="layer">
    <path
       inkscape:connector-curvature="0"
       id="path4808"
       d="M -4.8938755,-0.76239738 H 68.23113 V 96.737609 H -4.8938755 Z"
       style="display:inline;fill:#232323;fill-opacity:1;fill-rule:evenodd;stroke:none;stroke-width:1.84338;stroke-linecap:butt;stroke-linejoin:miter;stroke-miterlimit:4;stroke-dasharray:none;stroke-opacity:1" />
    <g
       style="stroke:#ffffff;stroke-opacity:1"
       id="surface1"
       transform="matrix(0.36999577,0,0,0.37992421,5.0289315,5.7103983)">
      <path
         id="path2"
         d="M 51,126 C 37.078125,126 24.75,117.1875 20.0625,104.22656 7.78125,98.179688 0,85.851563 0,72 0,52.148438 16.148438,36 36,36 c 0.515625,0 1.03125,0.02344 1.523438,0.04687 C 45.328125,24.820313 58.195313,18 72,18 90.703125,18 107.03906,30.5625 112.21875,48.070313 129.51562,46.78125 144,60.867188 144,78 c 0,16.546875 -13.45313,30 -30,30 -1.42969,0 -2.88281,-0.11719 -4.35937,-0.35156 C 104.76563,115.28906 96.328125,120 87,120 82.429688,120 77.976563,118.82813 73.992188,116.60156 67.875,122.57813 59.625,126 51,126 Z M 36,48 c -13.242187,0 -24,10.757813 -24,24 0,9.867188 5.953125,18.609375 15.1875,22.265625 l 2.835938,1.125 0.773437,2.929688 C 33.210938,107.55469 41.53125,114 51,114 c 6.773438,0 13.148438,-3.32812 17.109375,-8.90625 l 3.914063,-5.507812 5.015625,4.523442 C 79.007813,105.86719 82.335938,108 87,108 c 6.164063,0 11.625,-3.72656 13.92188,-9.515625 l 2.0625,-5.273437 5.39062,1.78125 C 110.4375,95.671875 112.28906,96 114,96 c 9.91406,0 18,-8.085937 18,-18 0,-9.914062 -8.08594,-18 -18,-18 -1.40625,0 -2.92969,0.234375 -4.78125,0.75 l -6.60937,1.851563 -0.9375,-6.796875 C 99.609375,41.085938 86.859375,30 72,30 61.148438,30 51.117188,35.90625 45.820313,45.398438 l -2.039063,3.632812 -4.125,-0.632812 C 38.460938,48.210938 37.242188,48 36,48 Z"
         style="fill:#ffffff;fill-opacity:1;fill-rule:nonzero;stroke:#ffffff;stroke-width:0.99952;stroke-miterlimit:4;stroke-dasharray:none;stroke-opacity:1"
         inkscape:connector-curvature="0" />
    </g>
    <text
       xml:space="preserve"
       style="font-style:normal;font-variant:normal;font-weight:bold;font-stretch:normal;font-size:16.4063px;line-height:0%;font-family:Calibri;-inkscape-font-specification:'Calibri, Bold';font-variant-ligatures:normal;font-variant-caps:normal;font-variant-numeric:normal;font-variant-east-asian:normal;text-align:start;letter-spacing:0px;word-spacing:0px;writing-mode:lr-tb;text-anchor:start;display:inline;fill:#ffffff;fill-opacity:1;stroke:none;stroke-width:0.9375px;stroke-linecap:butt;stroke-linejoin:miter;stroke-opacity:1"
       x="12.286283"
       y="85.60199"
       id="text4803-5"><tspan
         y="85.60199"
         x="12.286283"
         id="tspan83"
         sodipodi:role="line">Cloud</tspan></text>
  </g>
</svg>
