<?xml version="1.0" encoding="UTF-8" standalone="no"?>
<svg
   xmlns:dc="http://purl.org/dc/elements/1.1/"
   xmlns:cc="http://creativecommons.org/ns#"
   xmlns:rdf="http://www.w3.org/1999/02/22-rdf-syntax-ns#"
   xmlns:svg="http://www.w3.org/2000/svg"
   xmlns="http://www.w3.org/2000/svg"
   xmlns:sodipodi="http://sodipodi.sourceforge.net/DTD/sodipodi-0.dtd"
   xmlns:inkscape="http://www.inkscape.org/namespaces/inkscape"
   inkscape:export-ydpi="94.160004"
   inkscape:export-xdpi="94.160004"
   inkscape:export-filename="C:\Users\S\Desktop\MKS-TFT28-NEW-PICTURES-master\MKS-TFT28-NEW-PICTURES-master\pngs\bmp_custom2.png"
   width="78"
   height="104"
   viewBox="0 0 77.999997 104"
   id="svg4160"
   version="1.1"
   inkscape:version="1.0 (4035a4fb49, 2020-05-01)"
   sodipodi:docname="bed_heat_up.svg">
  <defs
     id="defs4162" />
  <sodipodi:namedview
     id="base"
     pagecolor="#ffffff"
     bordercolor="#666666"
     borderopacity="1.0"
     inkscape:pageopacity="0.0"
     inkscape:pageshadow="2"
     inkscape:zoom="11.2"
     inkscape:cx="26.760187"
     inkscape:cy="93.738987"
     inkscape:document-units="px"
     inkscape:current-layer="layer4"
     showgrid="true"
     units="px"
     showguides="false"
     inkscape:window-width="1920"
     inkscape:window-height="1001"
     inkscape:window-x="-9"
     inkscape:window-y="-9"
     inkscape:window-maximized="1"
     inkscape:document-rotation="0">
    <inkscape:grid
       type="xygrid"
       id="grid4712" />
  </sodipodi:namedview>
  <metadata
     id="metadata4165">
    <rdf:RDF>
      <cc:Work
         rdf:about="">
        <dc:format>image/svg+xml</dc:format>
        <dc:type
           rdf:resource="http://purl.org/dc/dcmitype/StillImage" />
        <dc:title />
      </cc:Work>
    </rdf:RDF>
  </metadata>
  <g
     inkscape:groupmode="layer"
     id="layer4"
     inkscape:label="Fondo"
     style="display:inline">
    <path
       inkscape:export-ydpi="94.160004"
       inkscape:export-xdpi="94.160004"
       inkscape:export-filename="C:\Users\S\Desktop\MKS-TFT28-NEW-PICTURES-master\MKS-TFT28-NEW-PICTURES-master\pngs\bmp_custom2.png"
       style="fill:#232323;fill-opacity:1;fill-rule:evenodd;stroke:none;stroke-width:2;stroke-linecap:butt;stroke-linejoin:miter;stroke-miterlimit:4;stroke-dasharray:none;stroke-opacity:1"
       d="m -0.52001176,-0.76239738 79.52479476,0 0,105.53494738 -79.52479476,0 z"
       id="path4808"
       inkscape:connector-curvature="0" />
    <text
       id="text4803-5-4"
       y="93.795929"
       x="9.1226807"
       style="font-style:normal;font-variant:normal;font-weight:bold;font-stretch:normal;font-size:17.5px;line-height:0%;font-family:Calibri;-inkscape-font-specification:'Calibri, Bold';font-variant-ligatures:normal;font-variant-caps:normal;font-variant-numeric:normal;font-variant-east-asian:normal;text-align:start;letter-spacing:0px;word-spacing:0px;writing-mode:lr-tb;text-anchor:start;display:inline;fill:#ffffff;fill-opacity:1;stroke:none;stroke-width:1px;stroke-linecap:butt;stroke-linejoin:miter;stroke-opacity:1"
       xml:space="preserve"><tspan
         sodipodi:role="line"
         id="tspan149"
         x="9.1226807"
         y="93.795929">Heat Up</tspan></text>
  </g>
  <g
     inkscape:groupmode="layer"
     id="layer1"
     inkscape:label="Simbolo">
    <path
       style="fill:none;fill-opacity:1;stroke:#ffffff;stroke-width:0;stroke-linecap:round;stroke-linejoin:round;stroke-miterlimit:4;stroke-dasharray:none;stroke-opacity:1"
       d="m 22.795553,16.619161 3.21242,-1.25 3.212421,1.25 0,47.687531 -3.212421,0.892857 -3.21242,-0.892857 z"
       id="rect4760-8"
       inkscape:connector-curvature="0"
       sodipodi:nodetypes="ccccccc" />
    <path
       style="fill:none;fill-rule:evenodd;stroke:#ffffff;stroke-width:3;stroke-linecap:butt;stroke-linejoin:round;stroke-miterlimit:4;stroke-dasharray:none;stroke-opacity:1"
       d="m 38.885014,48.570075 -24.401866,14.788422 35.203266,0 16.901866,-14.60985 z"
       id="path4432"
       inkscape:connector-curvature="0"
       sodipodi:nodetypes="ccccc" />
    <path
       style="fill:none;fill-rule:evenodd;stroke:#fbb351;stroke-width:2;stroke-linecap:butt;stroke-linejoin:round;stroke-miterlimit:4;stroke-dasharray:none;stroke-opacity:1"
       d="m 32.825393,25.942337 c 0,0 4.297062,4.866713 4.079832,7.62116 -0.16145,2.047151 -3.752831,3.272536 -3.898507,5.320432 -0.15243,2.142847 3.189558,3.750169 3.263866,5.895614 0.08507,2.456252 -3.196392,4.445587 -3.263866,6.902183 -0.06368,2.318578 2.719888,6.614591 2.719888,6.614591"
       id="path4434"
       inkscape:connector-curvature="0"
       sodipodi:nodetypes="cssssc" />
    <path
       style="fill:none;fill-rule:evenodd;stroke:#fbb351;stroke-width:2;stroke-linecap:butt;stroke-linejoin:round;stroke-miterlimit:4;stroke-dasharray:none;stroke-opacity:1"
       d="m 43.182536,27.370908 c 0,0 4.297062,4.866713 4.079832,7.62116 -0.16145,2.047151 -3.752831,3.272536 -3.898507,5.320432 -0.15243,2.142847 3.189558,3.750169 3.263866,5.895614 0.08507,2.456252 -3.196392,4.445587 -3.263866,6.902183 -0.06368,2.318578 2.719888,6.614591 2.719888,6.614591"
       id="path4434-1"
       inkscape:connector-curvature="0"
       sodipodi:nodetypes="cssssc" />
    <path
       style="fill:none;fill-rule:evenodd;stroke:#fbb351;stroke-width:2;stroke-linecap:butt;stroke-linejoin:round;stroke-miterlimit:4;stroke-dasharray:none;stroke-opacity:1"
       d="m 37.825393,20.942337 c 0,0 4.297062,4.866713 4.079832,7.62116 -0.16145,2.047151 -3.752831,3.272536 -3.898507,5.320432 -0.15243,2.142847 3.189558,3.750169 3.263866,5.895614 0.08507,2.456252 -3.196392,4.445587 -3.263866,6.902183 -0.06368,2.318578 2.719888,6.614591 2.719888,6.614591"
       id="path4434-15"
       inkscape:connector-curvature="0"
       sodipodi:nodetypes="cssssc" />
    <path
       style="fill:none;fill-rule:evenodd;stroke:#fbb351;stroke-width:2;stroke-linecap:butt;stroke-linejoin:round;stroke-miterlimit:4;stroke-dasharray:none;stroke-opacity:1"
       d="m 50.146822,22.370908 c 0,0 4.297062,4.866713 4.079832,7.62116 -0.16145,2.047151 -3.752831,3.272536 -3.898507,5.320432 -0.15243,2.142847 3.189558,3.750169 3.263866,5.895614 0.08507,2.456252 -3.196392,4.445587 -3.263866,6.902183 -0.06368,2.318578 2.719888,6.614591 2.719888,6.614591"
       id="path4434-0"
       inkscape:connector-curvature="0"
       sodipodi:nodetypes="cssssc" />
  </g>
</svg>
