<?xml version="1.0" encoding="UTF-8" standalone="no"?>
<svg
   xmlns:dc="http://purl.org/dc/elements/1.1/"
   xmlns:cc="http://creativecommons.org/ns#"
   xmlns:rdf="http://www.w3.org/1999/02/22-rdf-syntax-ns#"
   xmlns:svg="http://www.w3.org/2000/svg"
   xmlns="http://www.w3.org/2000/svg"
   xmlns:sodipodi="http://sodipodi.sourceforge.net/DTD/sodipodi-0.dtd"
   xmlns:inkscape="http://www.inkscape.org/namespaces/inkscape"
   sodipodi:docname="bed_heat_off.svg"
   inkscape:version="1.0 (4035a4fb49, 2020-05-01)"
   version="1.1"
   id="svg4160"
   viewBox="0 0 77.999997 104"
   height="104"
   width="78">
  <defs
     id="defs4162" />
  <sodipodi:namedview
     inkscape:document-rotation="0"
     inkscape:window-maximized="1"
     inkscape:window-y="-9"
     inkscape:window-x="-9"
     inkscape:window-height="1001"
     inkscape:window-width="1920"
     showguides="false"
     units="px"
     showgrid="true"
     inkscape:current-layer="layer4"
     inkscape:document-units="px"
     inkscape:cy="93.414359"
     inkscape:cx="38.652164"
     inkscape:zoom="31.678384"
     inkscape:pageshadow="2"
     inkscape:pageopacity="0.0"
     borderopacity="1.0"
     bordercolor="#666666"
     pagecolor="#ffffff"
     id="base">
    <inkscape:grid
       id="grid4712"
       type="xygrid" />
  </sodipodi:namedview>
  <metadata
     id="metadata4165">
    <rdf:RDF>
      <cc:Work
         rdf:about="">
        <dc:format>image/svg+xml</dc:format>
        <dc:type
           rdf:resource="http://purl.org/dc/dcmitype/StillImage" />
        <dc:title></dc:title>
      </cc:Work>
    </rdf:RDF>
  </metadata>
  <g
     style="display:inline"
     inkscape:label="Fondo"
     id="layer4"
     inkscape:groupmode="layer">
    <path
       inkscape:export-ydpi="94.160004"
       inkscape:export-xdpi="94.160004"
       inkscape:export-filename="C:\Users\S\Desktop\MKS-TFT28-NEW-PICTURES-master\MKS-TFT28-NEW-PICTURES-master\pngs\bmp_custom4.png"
       inkscape:connector-curvature="0"
       id="path4808"
       d="m -0.52001176,-0.76239738 79.52479476,0 0,105.53494738 -79.52479476,0 z"
       style="fill:#232323;fill-opacity:1;fill-rule:evenodd;stroke:none;stroke-width:2;stroke-linecap:butt;stroke-linejoin:miter;stroke-miterlimit:4;stroke-dasharray:none;stroke-opacity:1" />
    <text
       inkscape:export-ydpi="94.160004"
       inkscape:export-xdpi="94.160004"
       inkscape:export-filename="C:\Users\S\Desktop\MKS-TFT28-NEW-PICTURES-master\MKS-TFT28-NEW-PICTURES-master\pngs\text4803-5-4.png"
       xml:space="preserve"
       style="font-style:normal;font-variant:normal;font-weight:bold;font-stretch:normal;font-size:17.5px;line-height:0%;font-family:Calibri;-inkscape-font-specification:'Calibri, Bold';font-variant-ligatures:normal;font-variant-caps:normal;font-variant-numeric:normal;font-variant-east-asian:normal;text-align:start;letter-spacing:0px;word-spacing:0px;writing-mode:lr-tb;text-anchor:start;display:inline;fill:#ffffff;fill-opacity:1;stroke:none;stroke-width:1px;stroke-linecap:butt;stroke-linejoin:miter;stroke-opacity:1"
       x="27.417358"
       y="93.764359"
       id="text4803-5-4"><tspan
         y="93.764359"
         x="27.417358"
         id="tspan137"
         sodipodi:role="line">Off</tspan></text>
  </g>
  <g
     inkscape:label="Simbolo"
     id="layer1"
     inkscape:groupmode="layer">
    <path
       sodipodi:nodetypes="ccccccc"
       inkscape:connector-curvature="0"
       id="rect4760-8"
       d="m 22.795553,16.619161 3.21242,-1.25 3.212421,1.25 0,47.687531 -3.212421,0.892857 -3.21242,-0.892857 z"
       style="fill:none;fill-opacity:1;stroke:#ffffff;stroke-width:0;stroke-linecap:round;stroke-linejoin:round;stroke-miterlimit:4;stroke-dasharray:none;stroke-opacity:1" />
    <path
       sodipodi:nodetypes="ccccc"
       inkscape:connector-curvature="0"
       id="path4432"
       d="m 38.885014,48.570075 -24.401866,14.788422 35.203266,0 16.901866,-14.60985 z"
       style="fill:none;fill-rule:evenodd;stroke:#ffffff;stroke-width:3;stroke-linecap:butt;stroke-linejoin:round;stroke-miterlimit:4;stroke-dasharray:none;stroke-opacity:1" />
    <path
       sodipodi:nodetypes="cssssc"
       inkscape:connector-curvature="0"
       id="path4434"
       d="m 32.825393,25.942337 c 0,0 4.297062,4.866713 4.079832,7.62116 -0.16145,2.047151 -3.752831,3.272536 -3.898507,5.320432 -0.15243,2.142847 3.189558,3.750169 3.263866,5.895614 0.08507,2.456252 -3.196392,4.445587 -3.263866,6.902183 -0.06368,2.318578 2.719888,6.614591 2.719888,6.614591"
       style="fill:none;fill-rule:evenodd;stroke:#fbb351;stroke-width:2;stroke-linecap:butt;stroke-linejoin:round;stroke-miterlimit:4;stroke-dasharray:none;stroke-opacity:1" />
    <path
       sodipodi:nodetypes="cssssc"
       inkscape:connector-curvature="0"
       id="path4434-1"
       d="m 43.182536,27.370908 c 0,0 4.297062,4.866713 4.079832,7.62116 -0.16145,2.047151 -3.752831,3.272536 -3.898507,5.320432 -0.15243,2.142847 3.189558,3.750169 3.263866,5.895614 0.08507,2.456252 -3.196392,4.445587 -3.263866,6.902183 -0.06368,2.318578 2.719888,6.614591 2.719888,6.614591"
       style="fill:none;fill-rule:evenodd;stroke:#fbb351;stroke-width:2;stroke-linecap:butt;stroke-linejoin:round;stroke-miterlimit:4;stroke-dasharray:none;stroke-opacity:1" />
    <path
       sodipodi:nodetypes="cssssc"
       inkscape:connector-curvature="0"
       id="path4434-15"
       d="m 37.825393,20.942337 c 0,0 4.297062,4.866713 4.079832,7.62116 -0.16145,2.047151 -3.752831,3.272536 -3.898507,5.320432 -0.15243,2.142847 3.189558,3.750169 3.263866,5.895614 0.08507,2.456252 -3.196392,4.445587 -3.263866,6.902183 -0.06368,2.318578 2.719888,6.614591 2.719888,6.614591"
       style="fill:none;fill-rule:evenodd;stroke:#fbb351;stroke-width:2;stroke-linecap:butt;stroke-linejoin:round;stroke-miterlimit:4;stroke-dasharray:none;stroke-opacity:1" />
    <path
       sodipodi:nodetypes="cssssc"
       inkscape:connector-curvature="0"
       id="path4434-0"
       d="m 50.146822,22.370908 c 0,0 4.297062,4.866713 4.079832,7.62116 -0.16145,2.047151 -3.752831,3.272536 -3.898507,5.320432 -0.15243,2.142847 3.189558,3.750169 3.263866,5.895614 0.08507,2.456252 -3.196392,4.445587 -3.263866,6.902183 -0.06368,2.318578 2.719888,6.614591 2.719888,6.614591"
       style="fill:none;fill-rule:evenodd;stroke:#fbb351;stroke-width:2;stroke-linecap:butt;stroke-linejoin:round;stroke-miterlimit:4;stroke-dasharray:none;stroke-opacity:1" />
  </g>
</svg>
